<svg xmlns="http://www.w3.org/2000/svg" version="1.1" xmlns:xlink="http://www.w3.org/1999/xlink" xmlns:svgjs="http://svgjs.dev/svgjs" width="1500" height="268" viewBox="0 0 1500 268"><g transform="matrix(1,0,0,1,-0.9090909090909918,0.5833648824588522)"><svg viewBox="0 0 396 71" data-background-color="#ffffff" preserveAspectRatio="xMidYMid meet" height="268" width="1500" xmlns="http://www.w3.org/2000/svg" xmlns:xlink="http://www.w3.org/1999/xlink"><g id="tight-bounds" transform="matrix(1,0,0,1,0.2400000000000091,-0.1545481591588782)"><svg viewBox="0 0 395.52 71.30909631831773" height="71.30909631831773" width="395.52"><g><svg viewBox="0 0 534.4531689796697 96.3576367930861" height="71.30909631831773" width="395.52"><g transform="matrix(1,0,0,1,138.93316897966977,24.30096696198174)"><svg viewBox="0 0 395.52 47.75570286912262" height="47.75570286912262" width="395.52"><g id="textblocktransform"><svg viewBox="0 0 395.52 47.75570286912262" height="47.75570286912262" width="395.52" id="textblock"><g><svg viewBox="0 0 395.52 38.379299191374656" height="38.379299191374656" width="395.52"><g transform="matrix(1,0,0,1,0,0)"><svg width="395.52" viewBox="1.25 -35.75 370.97 36" height="38.379299191374656" data-palette-color="url(#6418aa61-2e0d-46bc-ad39-75bcb618d1d4)"></svg></g></svg></g><g transform="matrix(1,0,0,1,195.7824,47.43973062727762)"><svg viewBox="0 0 3.9552 0.3159722418450031" height="0.3159722418450031" width="3.9552"><g transform="matrix(1,0,0,1,0,0)"><svg width="3.9552" viewBox="3 -37.7 481.24 38.45" height="0.3159722418450031" data-palette-color="#ef5b2a"><path d="M3-34.55L9.35-34.55 9.35 0 3 0 3-34.55ZM41.95-6.4Q41.95-5.1 42.3-4.48 42.65-3.85 43.45-3.45L43.45-3.45 42.2 0.65Q40.15 0.4 38.92-0.45 37.7-1.3 37.1-3.05L37.1-3.05Q34.8 0.75 30.65 0.75L30.65 0.75Q27.35 0.75 25.4-1.48 23.45-3.7 23.45-7.4L23.45-7.4Q23.45-11.7 26.12-13.95 28.8-16.2 33.9-16.2L33.9-16.2 35.95-16.2 35.95-18.05Q35.95-20.55 35.07-21.58 34.2-22.6 32.25-22.6L32.25-22.6Q29.9-22.6 26.4-21.3L26.4-21.3 25-25.3Q27-26.2 29.15-26.68 31.3-27.15 33.25-27.15L33.25-27.15Q41.95-27.15 41.95-18.35L41.95-18.35 41.95-6.4ZM32.3-3.7Q34.7-3.7 35.95-7L35.95-7 35.95-12.55 34.5-12.55Q31.95-12.55 30.77-11.4 29.6-10.25 29.6-7.85L29.6-7.85Q29.6-5.8 30.3-4.75 31-3.7 32.3-3.7L32.3-3.7ZM71.39-27.15Q74.04-27.15 75.64-25.1 77.24-23.05 77.24-19.6L77.24-19.6 77.24 0 71.19 0 71.19-18.95Q71.19-20.85 70.69-21.68 70.19-22.5 69.24-22.5L69.24-22.5Q67.29-22.5 65.49-18.8L65.49-18.8 65.49 0 59.49 0 59.49-18.95Q59.49-22.5 57.59-22.5L57.59-22.5Q55.54-22.5 53.79-18.8L53.79-18.8 53.79 0 47.74 0 47.74-26.45 53.09-26.45 53.49-23.05Q56.09-27.15 59.74-27.15L59.74-27.15Q61.59-27.15 62.94-26 64.29-24.85 64.99-22.75L64.99-22.75Q67.64-27.15 71.39-27.15L71.39-27.15ZM104.94-27.15Q107.79-27.15 109.44-25.1 111.09-23.05 111.09-19.6L111.09-19.6 111.09 0 104.94 0 104.94-18.9Q104.94-20.8 104.41-21.63 103.89-22.45 102.89-22.45L102.89-22.45Q100.79-22.45 98.74-18.5L98.74-18.5 98.74 0 92.59 0 92.59-26.45 97.94-26.45 98.39-23Q99.74-25.1 101.26-26.13 102.79-27.15 104.94-27.15L104.94-27.15ZM126.04-27.15Q131.04-27.15 133.81-23.65 136.59-20.15 136.59-13.25L136.59-13.25Q136.59-6.65 133.79-2.95 130.99 0.75 126.04 0.75L126.04 0.75Q121.09 0.75 118.29-2.88 115.49-6.5 115.49-13.25L115.49-13.25Q115.49-19.95 118.29-23.55 121.09-27.15 126.04-27.15L126.04-27.15ZM126.04-22.5Q123.89-22.5 122.89-20.38 121.89-18.25 121.89-13.25L121.89-13.25Q121.89-8.2 122.89-6.08 123.89-3.95 126.04-3.95L126.04-3.95Q128.19-3.95 129.19-6.08 130.19-8.2 130.19-13.25L130.19-13.25Q130.19-18.3 129.19-20.4 128.19-22.5 126.04-22.5L126.04-22.5ZM152.28-5L154.43-1.2Q151.98 0.75 148.68 0.75L148.68 0.75Q145.23 0.75 143.43-1.23 141.63-3.2 141.63-6.6L141.63-6.6 141.63-22 138.53-22 138.53-26.45 141.63-26.45 141.63-32.3 147.78-33.05 147.78-26.45 152.78-26.45 152.18-22 147.78-22 147.78-6.6Q147.78-4.2 149.83-4.2L149.83-4.2Q150.48-4.2 150.98-4.38 151.48-4.55 152.28-5L152.28-5ZM176.53-33.05Q175.13-33.05 174.45-32.3 173.78-31.55 173.78-30L173.78-30 173.78-26.45 178.83-26.45 178.13-22 173.78-22 173.78 0 167.63 0 167.63-22 164.33-22 164.33-26.45 167.63-26.45 167.63-29.8Q167.63-33.4 169.73-35.55 171.83-37.7 175.73-37.7L175.73-37.7Q178.78-37.7 181.63-36.2L181.63-36.2 179.93-32.2Q178.18-33.05 176.53-33.05L176.53-33.05ZM198.53-6.4Q198.53-5.1 198.88-4.48 199.23-3.85 200.03-3.45L200.03-3.45 198.78 0.65Q196.73 0.4 195.5-0.45 194.28-1.3 193.68-3.05L193.68-3.05Q191.38 0.75 187.23 0.75L187.23 0.75Q183.93 0.75 181.98-1.48 180.03-3.7 180.03-7.4L180.03-7.4Q180.03-11.7 182.7-13.95 185.38-16.2 190.48-16.2L190.48-16.2 192.53-16.2 192.53-18.05Q192.53-20.55 191.65-21.58 190.78-22.6 188.83-22.6L188.83-22.6Q186.48-22.6 182.98-21.3L182.98-21.3 181.58-25.3Q183.58-26.2 185.73-26.68 187.88-27.15 189.83-27.15L189.83-27.15Q198.53-27.15 198.53-18.35L198.53-18.35 198.53-6.4ZM188.88-3.7Q191.28-3.7 192.53-7L192.53-7 192.53-12.55 191.08-12.55Q188.53-12.55 187.35-11.4 186.18-10.25 186.18-7.85L186.18-7.85Q186.18-5.8 186.88-4.75 187.58-3.7 188.88-3.7L188.88-3.7ZM211.67-27.15Q216.37-27.15 219.62-24.05L219.62-24.05 217.27-20.7Q215.87-21.7 214.62-22.2 213.37-22.7 212.07-22.7L212.07-22.7Q210.62-22.7 209.8-21.93 208.97-21.15 208.97-19.8L208.97-19.8Q208.97-18.45 209.9-17.63 210.82-16.8 213.62-15.7L213.62-15.7Q217.07-14.35 218.72-12.5 220.37-10.65 220.37-7.55L220.37-7.55Q220.37-3.7 217.67-1.48 214.97 0.75 210.82 0.75L210.82 0.75Q208.12 0.75 205.85-0.23 203.57-1.2 201.87-2.95L201.87-2.95 204.87-6.25Q207.67-3.8 210.57-3.8L210.57-3.8Q212.22-3.8 213.17-4.67 214.12-5.55 214.12-7.1L214.12-7.1Q214.12-8.25 213.72-8.97 213.32-9.7 212.32-10.33 211.32-10.95 209.32-11.7L209.32-11.7Q205.87-13.05 204.4-14.85 202.92-16.65 202.92-19.45L202.92-19.45Q202.92-22.8 205.3-24.98 207.67-27.15 211.67-27.15L211.67-27.15ZM235.37-5L237.52-1.2Q235.07 0.75 231.77 0.75L231.77 0.75Q228.32 0.75 226.52-1.23 224.72-3.2 224.72-6.6L224.72-6.6 224.72-22 221.62-22 221.62-26.45 224.72-26.45 224.72-32.3 230.87-33.05 230.87-26.45 235.87-26.45 235.27-22 230.87-22 230.87-6.6Q230.87-4.2 232.92-4.2L232.92-4.2Q233.57-4.2 234.07-4.38 234.57-4.55 235.37-5L235.37-5ZM262.07-27.15Q265.92-27.15 267.97-23.65 270.02-20.15 270.02-13.25L270.02-13.25Q270.02-6.75 267.72-3 265.42 0.75 261.42 0.75L261.42 0.75Q259.67 0.75 258.22-0.13 256.77-1 255.72-2.55L255.72-2.55 255.37 0 249.92 0 249.92-37 256.07-37.65 256.07-23.6Q257.12-25.3 258.64-26.23 260.17-27.15 262.07-27.15L262.07-27.15ZM259.77-3.9Q261.62-3.9 262.64-6 263.67-8.1 263.67-13.25L263.67-13.25Q263.67-18.6 262.74-20.58 261.82-22.55 260.12-22.55L260.12-22.55Q258.97-22.55 257.92-21.6 256.87-20.65 256.07-19.1L256.07-19.1 256.07-6.7Q256.72-5.45 257.69-4.67 258.67-3.9 259.77-3.9L259.77-3.9ZM292.76-26.45L292.76 0 287.41 0 287.11-3.35Q285.86-1.3 284.31-0.28 282.76 0.75 280.71 0.75L280.71 0.75Q277.81 0.75 276.14-1.3 274.46-3.35 274.46-6.65L274.46-6.65 274.46-26.45 280.61-26.45 280.61-7Q280.61-3.9 282.71-3.9L282.71-3.9Q283.91-3.9 284.86-4.83 285.81-5.75 286.61-7.45L286.61-7.45 286.61-26.45 292.76-26.45ZM309.61-5L311.76-1.2Q309.31 0.75 306.01 0.75L306.01 0.75Q302.56 0.75 300.76-1.23 298.96-3.2 298.96-6.6L298.96-6.6 298.96-22 295.86-22 295.86-26.45 298.96-26.45 298.96-32.3 305.11-33.05 305.11-26.45 310.11-26.45 309.51-22 305.11-22 305.11-6.6Q305.11-4.2 307.16-4.2L307.16-4.2Q307.81-4.2 308.31-4.38 308.81-4.55 309.61-5L309.61-5ZM341.06-6.4Q341.06-5.1 341.41-4.48 341.76-3.85 342.56-3.45L342.56-3.45 341.31 0.65Q339.26 0.4 338.03-0.45 336.81-1.3 336.21-3.05L336.21-3.05Q333.91 0.75 329.76 0.75L329.76 0.75Q326.46 0.75 324.51-1.48 322.56-3.7 322.56-7.4L322.56-7.4Q322.56-11.7 325.23-13.95 327.91-16.2 333.01-16.2L333.01-16.2 335.06-16.2 335.06-18.05Q335.06-20.55 334.18-21.58 333.31-22.6 331.36-22.6L331.36-22.6Q329.01-22.6 325.51-21.3L325.51-21.3 324.11-25.3Q326.11-26.2 328.26-26.68 330.41-27.15 332.36-27.15L332.36-27.15Q341.06-27.15 341.06-18.35L341.06-18.35 341.06-6.4ZM331.41-3.7Q333.81-3.7 335.06-7L335.06-7 335.06-12.55 333.61-12.55Q331.06-12.55 329.88-11.4 328.71-10.25 328.71-7.85L328.71-7.85Q328.71-5.8 329.41-4.75 330.11-3.7 331.41-3.7L331.41-3.7ZM356.35-27.15Q358.5-27.15 360.25-26.43 362-25.7 363.6-24.15L363.6-24.15 360.95-20.65Q359.85-21.55 358.88-21.98 357.9-22.4 356.75-22.4L356.75-22.4Q354.5-22.4 353.35-20.28 352.2-18.15 352.2-13.1L352.2-13.1Q352.2-8.2 353.38-6.2 354.55-4.2 356.75-4.2L356.75-4.2Q357.85-4.2 358.75-4.6 359.65-5 360.85-5.85L360.85-5.85 363.6-2.3Q360.4 0.75 356.45 0.75L356.45 0.75Q351.35 0.75 348.53-2.73 345.7-6.2 345.7-13L345.7-13Q345.7-17.4 347-20.6 348.3-23.8 350.73-25.48 353.15-27.15 356.35-27.15L356.35-27.15ZM376.15-27.15Q378.3-27.15 380.05-26.43 381.8-25.7 383.4-24.15L383.4-24.15 380.75-20.65Q379.65-21.55 378.68-21.98 377.7-22.4 376.55-22.4L376.55-22.4Q374.3-22.4 373.15-20.28 372-18.15 372-13.1L372-13.1Q372-8.2 373.18-6.2 374.35-4.2 376.55-4.2L376.55-4.2Q377.65-4.2 378.55-4.6 379.45-5 380.65-5.85L380.65-5.85 383.4-2.3Q380.2 0.75 376.25 0.75L376.25 0.75Q371.15 0.75 368.33-2.73 365.5-6.2 365.5-13L365.5-13Q365.5-17.4 366.8-20.6 368.1-23.8 370.53-25.48 372.95-27.15 376.15-27.15L376.15-27.15ZM404.6-26.45L404.6 0 399.25 0 398.95-3.35Q397.7-1.3 396.15-0.28 394.6 0.75 392.55 0.75L392.55 0.75Q389.65 0.75 387.97-1.3 386.3-3.35 386.3-6.65L386.3-6.65 386.3-26.45 392.45-26.45 392.45-7Q392.45-3.9 394.55-3.9L394.55-3.9Q395.75-3.9 396.7-4.83 397.65-5.75 398.45-7.45L398.45-7.45 398.45-26.45 404.6-26.45ZM421.95-27.1Q423.1-27.1 424-26.75L424-26.75 423-20.85Q422-21.1 421.15-21.1L421.15-21.1Q419.25-21.1 418.15-19.45 417.05-17.8 416.45-14.55L416.45-14.55 416.45 0 410.3 0 410.3-26.45 415.65-26.45 416.1-21.85Q417.95-27.1 421.95-27.1L421.95-27.1ZM443.74-6.4Q443.74-5.1 444.09-4.48 444.44-3.85 445.24-3.45L445.24-3.45 443.99 0.65Q441.94 0.4 440.72-0.45 439.49-1.3 438.89-3.05L438.89-3.05Q436.59 0.75 432.44 0.75L432.44 0.75Q429.14 0.75 427.19-1.48 425.24-3.7 425.24-7.4L425.24-7.4Q425.24-11.7 427.92-13.95 430.59-16.2 435.69-16.2L435.69-16.2 437.74-16.2 437.74-18.05Q437.74-20.55 436.87-21.58 435.99-22.6 434.04-22.6L434.04-22.6Q431.69-22.6 428.19-21.3L428.19-21.3 426.79-25.3Q428.79-26.2 430.94-26.68 433.09-27.15 435.04-27.15L435.04-27.15Q443.74-27.15 443.74-18.35L443.74-18.35 443.74-6.4ZM434.09-3.7Q436.49-3.7 437.74-7L437.74-7 437.74-12.55 436.29-12.55Q433.74-12.55 432.57-11.4 431.39-10.25 431.39-7.85L431.39-7.85Q431.39-5.8 432.09-4.75 432.79-3.7 434.09-3.7L434.09-3.7ZM460.69-5L462.84-1.2Q460.39 0.75 457.09 0.75L457.09 0.75Q453.64 0.75 451.84-1.23 450.04-3.2 450.04-6.6L450.04-6.6 450.04-22 446.94-22 446.94-26.45 450.04-26.45 450.04-32.3 456.19-33.05 456.19-26.45 461.19-26.45 460.59-22 456.19-22 456.19-6.6Q456.19-4.2 458.24-4.2L458.24-4.2Q458.89-4.2 459.39-4.38 459.89-4.55 460.69-5L460.69-5ZM484.24-13.85Q484.24-13.4 484.09-11.3L484.09-11.3 470.44-11.3Q470.64-7.2 471.86-5.58 473.09-3.95 475.34-3.95L475.34-3.95Q476.89-3.95 478.14-4.48 479.39-5 480.84-6.15L480.84-6.15 483.39-2.65Q479.89 0.75 474.99 0.75L474.99 0.75Q469.79 0.75 467.01-2.85 464.24-6.45 464.24-13L464.24-13Q464.24-19.55 466.89-23.35 469.54-27.15 474.39-27.15L474.39-27.15Q479.04-27.15 481.64-23.78 484.24-20.4 484.24-13.85L484.24-13.85ZM478.24-15.3L478.24-15.65Q478.24-19.4 477.34-21.13 476.44-22.85 474.44-22.85L474.44-22.85Q472.59-22.85 471.61-21.18 470.64-19.5 470.44-15.3L470.44-15.3 478.24-15.3Z" opacity="1" transform="matrix(1,0,0,1,0,0)" fill="#ef5b2a" class="slogan-text-1" data-fill-palette-color="secondary" id="text-1"></path></svg></g></svg></g></svg></g></svg></g><g><svg viewBox="0 0 129.87273754376682 96.3576367930861" height="96.3576367930861" width="129.87273754376682"><g><svg xmlns="http://www.w3.org/2000/svg" xmlns:xlink="http://www.w3.org/1999/xlink" version="1.1" x="0" y="0" viewBox="5.132408955589326 16.710673764624296 89.73559104441067 66.5783262353757" enable-background="new 0 0 100 100" xml:space="preserve" height="96.3576367930861" width="129.87273754376682" class="icon-icon-0" data-fill-palette-color="accent" id="icon-0"><g fill="#301c3b" data-fill-palette-color="accent"><g fill="#301c3b" data-fill-palette-color="accent"><path fill-rule="evenodd" clip-rule="evenodd" d="M74.326 68.963c-0.798-0.145-1.9-0.323-2.992-0.555-0.341-0.071-0.667-0.255-0.974-0.432-1.325-0.767-1.746-1.954-0.93-3.247 0.693-1.103 1.573-2.117 2.501-3.037 1.594-1.582 3.297-3.057 4.94-4.588 4.552-4.241 7.812-9.313 9.824-15.2 0.328-0.958 0.706-1.908 1.158-2.812 0.898-1.788 2-1.927 3.344-0.457 1.32 1.445 2.083 3.202 2.522 5.069 1.868 7.964-0.336 14.692-6.371 20.143-2.905 2.626-6.373 4.208-10.25 4.836C76.294 68.814 75.471 68.851 74.326 68.963z" fill="#301c3b" data-fill-palette-color="accent"></path><path fill-rule="evenodd" clip-rule="evenodd" d="M92.634 38.514c-0.653-1.049-1.292-2.153-2.012-3.201-0.739-1.076-1.61-2.049-2.715-2.778-1.506-0.995-2.472-0.662-2.837 1.085-0.302 1.443-0.484 2.917-0.636 4.387-0.803 7.851-4.379 14.12-10.652 18.884-3.111 2.361-6.535 4.188-9.985 5.977-1.898 0.982-3.829 1.915-5.486 3.297-0.393 0.328-0.756 0.713-1.059 1.125-0.763 1.045-0.708 2.198 0.128 3.191 1.074 1.28 2.537 1.934 4.071 2.445 2.922 0.974 5.939 1.181 8.983 0.946 4.886-0.38 9.429-1.859 13.513-4.59 5.735-3.835 9.416-9.074 10.688-15.92 0.022-0.119 0.062-0.233 0.094-0.349 0.047 0.01 0.093 0.02 0.139 0.029-0.181 0.872-0.324 1.753-0.547 2.613-2.235 8.58-7.57 14.593-15.453 18.412-5.266 2.551-10.866 3.581-16.712 3.264-3.956-0.216-7.766-1.03-11.323-2.828-1.505-0.76-2.909-1.677-3.968-3.024-0.655-0.834-1.134-1.74-0.875-2.858 0.202-0.87 0.787-1.468 1.482-1.96 1.446-1.021 3.11-1.567 4.779-2.079 3.403-1.045 6.838-1.997 10.215-3.117 3.978-1.317 7.716-3.146 11.027-5.763 4.653-3.679 7.529-8.396 8.347-14.309 0.316-2.291 0.267-4.588 0.09-6.89-0.128-1.651-0.202-3.308-0.271-4.962-0.012-0.289 0.091-0.601 0.205-0.875 0.252-0.599 0.808-0.91 1.45-0.637 0.891 0.377 1.806 0.802 2.549 1.404 3.007 2.436 5.117 5.572 6.777 9.031C92.651 38.49 92.632 38.53 92.634 38.514z" fill="#301c3b" data-fill-palette-color="accent"></path><path fill-rule="evenodd" clip-rule="evenodd" d="M43.539 16.952c-1.064 0.275-2.123 0.514-3.159 0.832-0.556 0.169-1.102 0.425-1.59 0.738-0.281 0.179-0.594 0.55-0.597 0.837-0.001 0.221 0.426 0.553 0.723 0.647 0.964 0.307 1.947 0.575 2.939 0.775 4.686 0.946 9.3 2.127 13.712 4.012 5.238 2.238 9.98 5.27 14.37 8.877 0.411 0.338 0.821 0.678 1.19 1.075-1.092-0.709-2.184-1.42-3.275-2.129-4.513-2.929-9.213-5.479-14.349-7.164-5.083-1.667-10.277-2.512-15.63-2.206-2.663 0.152-5.274 0.613-7.754 1.648-4.807 2.005-7.589 5.706-8.757 10.675-1.146 4.878-0.354 9.594 1.414 14.196 0.062 0.159 0.12 0.32 0.18 0.48-0.048 0.021-0.096 0.042-0.143 0.062-0.599-1.321-1.237-2.628-1.789-3.97-1.365-3.326-2.043-6.811-2.353-10.381-0.086-1.01-0.214-2.024-0.43-3.013-0.267-1.221-0.986-1.602-2.189-1.245-1.295 0.385-2.363 1.169-3.342 2.059-3.771 3.432-5.965 7.731-6.772 12.729-1.026 6.351 0.45 12.201 3.736 17.652 0.108 0.182 0.216 0.36 0.263 0.589-0.053-0.064-0.112-0.125-0.158-0.194-2.564-3.895-4.199-8.132-4.564-12.798-0.51-6.521 1.353-12.361 5.282-17.558 2.842-3.758 6.466-6.62 10.478-9.019 4.056-2.426 8.189-4.7 12.683-6.241 3.086-1.059 6.281-1.576 9.505-1.965C43.285 16.939 43.411 16.952 43.539 16.952z" fill="#301c3b" data-fill-palette-color="accent"></path><path fill-rule="evenodd" clip-rule="evenodd" d="M61.55 61.343c-2.16 0.432-4.308 0.96-6.484 1.273-3.546 0.512-7.112 0.87-10.667 1.316-1.714 0.217-3.426 0.478-5.038 1.151-2.632 1.103-3.239 3.024-1.707 5.444 1.121 1.772 2.715 3.062 4.453 4.177 3.482 2.239 7.323 3.559 11.365 4.323 3.829 0.723 7.688 0.867 11.56 0.423 6.403-0.734 12.298-2.837 17.522-6.675 0.137-0.102 0.28-0.188 0.421-0.283 0.027 0.041 0.057 0.079 0.085 0.119-0.994 0.725-1.971 1.477-2.987 2.169-4.866 3.32-10.242 5.348-16.062 6.188-8.425 1.216-16.525 0.121-24.223-3.575-3.16-1.518-6.029-3.465-8.351-6.133-1.098-1.261-2.023-2.628-2.404-4.294-0.399-1.745 0.25-3.111 1.865-3.873 1.1-0.519 2.284-0.745 3.479-0.742 2.764 0.002 5.529 0.042 8.29 0.152 4.246 0.17 8.493 0.326 12.723-0.194 2.06-0.255 4.099-0.687 6.146-1.039C61.541 61.295 61.546 61.319 61.55 61.343z" fill="#301c3b" data-fill-palette-color="accent"></path><path fill-rule="evenodd" clip-rule="evenodd" d="M65.631 81.426c-1.752 0.377-3.496 0.797-5.258 1.123-4.186 0.775-8.406 0.904-12.628 0.417-8.404-0.967-16.037-3.862-22.574-9.342-3.041-2.547-5.567-5.528-7.092-9.246-0.675-1.647-1.105-3.351-0.79-5.159 0.323-1.852 1.667-3.017 3.546-3.101 1.593-0.071 3.128 0.24 4.623 0.725 3.147 1.024 6.268 2.136 9.419 3.148 2.197 0.705 4.428 1.307 6.489 1.908-1.008-0.179-2.186-0.391-3.364-0.598-2.822-0.501-5.641-1.03-8.47-1.488-1.357-0.22-2.733-0.254-4.098 0.041-2.114 0.458-3.188 2.023-2.868 4.176 0.316 2.126 1.326 3.934 2.604 5.604 2.893 3.78 6.67 6.446 10.891 8.527 4.302 2.122 8.855 3.419 13.616 3.999 5.237 0.636 10.424 0.396 15.559-0.841 0.119-0.027 0.243-0.036 0.364-0.054C65.611 81.318 65.621 81.372 65.631 81.426z" fill="#301c3b" data-fill-palette-color="accent"></path><path fill-rule="evenodd" clip-rule="evenodd" d="M44.913 83.289c-1.744-0.25-3.499-0.436-5.228-0.76-6.602-1.23-12.641-3.782-17.982-7.884-4.446-3.413-8-7.559-10.145-12.798-1.127-2.755-1.751-5.611-1.436-8.611 0.153-1.453 0.517-2.843 1.405-4.04 1.021-1.377 2.398-1.835 4.061-1.358 1.625 0.468 2.977 1.436 4.318 2.41 3.084 2.243 6.149 4.512 9.235 6.751 0.597 0.434 1.252 0.786 1.841 1.249-0.658-0.332-1.319-0.661-1.976-0.996-2.666-1.357-5.312-2.758-8.01-4.048-0.95-0.456-2.006-0.749-3.046-0.94-2.829-0.517-4.246 1.267-4.625 3.479-0.419 2.452 0.105 4.788 1.01 7.053 1.531 3.833 3.972 7.034 6.996 9.795 6.155 5.619 13.456 8.838 21.624 10.209 0.66 0.113 1.324 0.203 1.986 0.305C44.931 83.166 44.922 83.228 44.913 83.289z" fill="#301c3b" data-fill-palette-color="accent"></path><path fill-rule="evenodd" clip-rule="evenodd" d="M26.441 78.456c-1.506-0.831-3.045-1.606-4.512-2.503-5.457-3.332-9.819-7.72-12.717-13.471-2.046-4.059-3.056-8.358-2.717-12.915 0.258-3.476 1.25-6.717 3.425-9.511 0.694-0.892 1.497-1.679 2.549-2.156 1.16-0.525 2.181-0.4 3.013 0.559 0.681 0.787 1.256 1.682 1.777 2.587 1.519 2.638 2.908 5.354 4.503 7.943 1.015 1.646 2.305 3.122 3.47 4.674 0.059 0.076 0.114 0.153 0.102 0.294-0.189-0.177-0.387-0.344-0.563-0.531-2.334-2.506-4.648-5.03-7.004-7.515-0.745-0.786-1.543-1.546-2.419-2.176-1.792-1.29-3.593-0.977-4.987 0.751-1.247 1.542-1.877 3.349-2.174 5.273-0.769 4.979 0.408 9.599 2.748 13.957 3.153 5.875 7.855 10.214 13.588 13.504 0.662 0.38 1.343 0.73 2.015 1.093C26.504 78.36 26.473 78.408 26.441 78.456z" fill="#301c3b" data-fill-palette-color="accent"></path><path fill-rule="evenodd" clip-rule="evenodd" d="M21.966 46.788c-0.077-0.734-0.177-1.468-0.226-2.205-0.283-4.324 0.528-8.38 3.043-11.989 2.307-3.308 5.52-5.363 9.319-6.547 3.768-1.173 7.627-1.387 11.538-1.024 6.396 0.592 12.308 2.747 18.021 5.549 0.541 0.266 1.083 0.533 1.594 0.866-1.375-0.504-2.749-1.01-4.123-1.514-3.6-1.318-7.243-2.485-11.039-3.105-5.445-0.89-10.847-0.888-16.077 1.124-6.586 2.533-10.511 7.299-11.675 14.286-0.126 0.754-0.19 1.524-0.229 2.288-0.038 0.748-0.008 1.498-0.008 2.247C22.059 46.771 22.012 46.78 21.966 46.788z" fill="#301c3b" data-fill-palette-color="accent"></path><path fill-rule="evenodd" clip-rule="evenodd" d="M75.267 38.73c-0.522-0.592-1.046-1.183-1.566-1.775-6.062-6.909-13.469-11.91-21.917-15.434-1.429-0.596-2.843-1.229-4.243-1.888-0.509-0.24-0.994-0.566-1.425-0.93-0.544-0.461-0.485-1.019 0.186-1.306 0.727-0.311 1.517-0.614 2.291-0.645 2.044-0.083 4.094-0.017 6.143-0.007 0.06 0 0.121 0.035 0.307 0.091-0.725 0.07-1.323 0.093-1.905 0.194-0.497 0.086-1.1 0.137-1.261 0.73-0.161 0.594 0.304 0.986 0.719 1.269 1.542 1.054 3.09 2.103 4.682 3.078 4.7 2.877 9.134 6.088 12.935 10.112 1.816 1.923 3.463 3.979 4.943 6.168 0.065 0.097 0.118 0.201 0.177 0.302C75.309 38.703 75.287 38.717 75.267 38.73z" fill="#301c3b" data-fill-palette-color="accent"></path><path fill-rule="evenodd" clip-rule="evenodd" d="M81.998 26.127c-0.353-0.185-0.695-0.394-1.062-0.549-0.423-0.179-0.858-0.351-1.305-0.456-0.975-0.229-1.585 0.214-1.502 1.216 0.092 1.074 0.342 2.138 0.565 3.197 0.522 2.47 1.252 4.911 1.576 7.405 0.924 7.096-1.089 13.205-6.565 18.001 0.246-0.251 0.496-0.496 0.736-0.754 0.257-0.271 0.516-0.544 0.755-0.83 3.028-3.667 4.252-7.914 4.035-12.619-0.187-3.998-1.443-7.711-2.998-11.348-0.616-1.438-1.203-2.891-1.774-4.347-0.142-0.359-0.211-0.757-0.251-1.143-0.082-0.8 0.356-1.286 1.159-1.227 0.508 0.037 1.024 0.157 1.503 0.334C78.772 23.713 80.395 24.906 81.998 26.127z" fill="#301c3b" data-fill-palette-color="accent"></path><path fill-rule="evenodd" clip-rule="evenodd" d="M77.751 43.611c-1.376-4.173-3.517-7.787-6.17-11.111-2.526-3.166-5.467-5.913-8.606-8.458-1.51-1.224-3.026-2.438-4.517-3.685-0.447-0.374-0.858-0.811-1.211-1.275-0.618-0.814-0.389-1.431 0.615-1.609 0.625-0.11 1.289-0.171 1.911-0.083 1.462 0.206 2.908 0.513 4.36 0.782 0.079 0.015 0.153 0.057 0.339 0.129-0.69 0-1.262-0.045-1.824 0.01-0.904 0.089-1.205 0.626-0.729 1.407 0.422 0.693 0.935 1.348 1.49 1.943 2.08 2.229 4.267 4.362 6.28 6.65 3.594 4.081 6.42 8.621 7.827 13.942 0.095 0.361 0.172 0.726 0.251 1.09C77.779 43.394 77.763 43.448 77.751 43.611z" fill="#301c3b" data-fill-palette-color="accent"></path><path fill-rule="evenodd" clip-rule="evenodd" d="M77.906 48.028c0.035-0.298 0.076-0.596 0.104-0.896 0.42-4.531-0.779-8.716-2.741-12.735-1.65-3.385-3.87-6.395-6.187-9.341-0.781-0.994-1.548-2.003-2.271-3.039-0.312-0.446-0.549-0.96-0.73-1.476-0.209-0.586 0.073-1.078 0.688-1.132 0.628-0.055 1.303-0.066 1.896 0.108 1.624 0.477 3.216 1.061 4.776 1.704-0.678-0.115-1.353-0.292-2.035-0.33-0.942-0.053-1.365 0.466-1.023 1.356 0.414 1.072 0.931 2.117 1.513 3.108 1.677 2.856 3.42 5.674 4.663 8.761 1.331 3.308 2.156 6.718 1.961 10.309-0.065 1.213-0.284 2.418-0.435 3.626C78.026 48.045 77.966 48.037 77.906 48.028z" fill="#301c3b" data-fill-palette-color="accent"></path><path fill-rule="evenodd" clip-rule="evenodd" d="M22.331 43.36c0.306-1.013 0.555-2.047 0.925-3.036 2.283-6.102 6.735-9.877 12.841-11.822 3.4-1.083 6.903-1.393 10.457-1.234 3.721 0.167 7.351 0.881 10.954 1.77 0.095 0.024 0.186 0.074 0.394 0.159-1.729-0.234-3.329-0.464-4.934-0.667-5.219-0.657-10.42-0.796-15.543 0.669-7.35 2.103-12.439 6.627-14.863 13.977-0.026 0.077-0.053 0.153-0.079 0.229C22.432 43.392 22.381 43.375 22.331 43.36z" fill="#301c3b" data-fill-palette-color="accent"></path><path fill-rule="evenodd" clip-rule="evenodd" d="M48.016 28.454c-2.662 0.242-5.287 0.608-7.878 1.205-5.475 1.26-10.307 3.687-14.169 7.856-0.308 0.333-0.6 0.678-0.9 1.017-0.034-0.029-0.069-0.058-0.104-0.087 0.527-0.634 1.031-1.288 1.584-1.898 3.133-3.454 7.043-5.619 11.497-6.861 3.181-0.888 6.44-1.188 9.727-1.261C47.854 28.424 47.935 28.444 48.016 28.454z" fill="#301c3b" data-fill-palette-color="accent"></path><path fill-rule="evenodd" clip-rule="evenodd" d="M14.697 28.899c-0.656 0.67-1.311 1.341-2.005 2.051 0.717-0.694 1.396-1.35 2.074-2.006C14.743 28.929 14.719 28.915 14.697 28.899z" fill="#301c3b" data-fill-palette-color="accent"></path></g></g></svg></g></svg></g></svg></g><defs></defs><mask id="8dabe81c-61c9-401f-92b8-3200ac0fd466"><g id="SvgjsG1710"><svg viewBox="0 0 395.52 71.30909631831773" height="71.30909631831773" width="395.52"><g><svg viewBox="0 0 534.4531689796697 96.3576367930861" height="71.30909631831773" width="395.52"><g transform="matrix(1,0,0,1,138.93316897966977,24.30096696198174)"><svg viewBox="0 0 395.52 47.75570286912262" height="47.75570286912262" width="395.52"><g id="SvgjsG1709"><svg viewBox="0 0 395.52 47.75570286912262" height="47.75570286912262" width="395.52" id="SvgjsSvg1708"><g><svg viewBox="0 0 395.52 38.379299191374656" height="38.379299191374656" width="395.52"><g transform="matrix(1,0,0,1,0,0)"><svg width="395.52" viewBox="1.25 -35.75 370.97 36" height="38.379299191374656" data-palette-color="url(#6418aa61-2e0d-46bc-ad39-75bcb618d1d4)"><path d="M36.05 0L9.6 0Q5.55 0 3.4-2.05 1.25-4.1 1.25-7.9L1.25-7.9Q1.25-11.65 3.4-13.7 5.55-15.75 9.6-15.75L9.6-15.75 28.8-15.75 28.8-16.95Q28.8-20 25.8-20L25.8-20 4.6-20 4.6-25.75 27.7-25.75Q32.25-25.75 34.15-23.68 36.05-21.6 36.05-17.85L36.05-17.85 36.05 0ZM10.9-5.75L10.9-5.75 28.8-5.75 28.8-10 10.9-10Q9.95-10 9.43-9.43 8.9-8.85 8.9-7.9L8.9-7.9Q8.9-6.95 9.43-6.35 9.95-5.75 10.9-5.75ZM48.9 0L41.55 0 41.55-25.75 61.25-25.75Q65.6-25.75 67.65-23.58 69.7-21.4 69.7-17.85L69.7-17.85 69.7-12.5 62.35-12.5 62.35-16.95Q62.35-19.95 59.35-19.95L59.35-19.95 48.9-19.95 48.9 0ZM95.9 0L81.9 0Q77.5 0 75.47-2.2 73.45-4.4 73.45-7.9L73.45-7.9 73.45-25.75 80.7-25.75 80.7-8.75Q80.7-5.75 83.7-5.75L83.7-5.75 94.1-5.75Q97.1-5.75 97.1-8.75L97.1-8.75 97.1-25.75 104.34-25.75 104.34-7.9Q104.34-4.4 102.32-2.2 100.3 0 95.9 0L95.9 0ZM116.84 0L109.59 0 109.59-25.75 132.04-25.75Q136.44-25.75 138.47-23.58 140.49-21.4 140.49-17.85L140.49-17.85 140.49 0 133.24 0 133.24-17Q133.24-20 130.24-20L130.24-20 116.84-20 116.84 0ZM170.49 0L163.24 0 163.24-35.75 170.49-35.75 170.49 0ZM181.74 0L164.49 0 164.49-5.75 181.74-5.75Q184.99-5.75 186.71-7.53 188.44-9.3 188.44-12.85L188.44-12.85Q188.44-16.45 186.71-18.23 184.99-20 181.74-20L181.74-20 164.99-20 164.99-25.75 181.74-25.75Q188.44-25.75 192.19-22.45 195.94-19.15 195.94-12.85L195.94-12.85Q195.94-6.6 192.19-3.3 188.44 0 181.74 0L181.74 0ZM222.88 0.25L213.63 0.25Q206.94 0.25 203.19-3.08 199.44-6.4 199.44-12.85L199.44-12.85Q199.44-19.35 203.19-22.68 206.94-26 213.63-26L213.63-26 222.88-26Q229.59-26 233.34-22.68 237.09-19.35 237.09-12.85L237.09-12.85Q237.09-6.4 233.34-3.08 229.59 0.25 222.88 0.25L222.88 0.25ZM213.63-5.5L213.63-5.5 222.88-5.5Q226.13-5.5 227.86-7.3 229.59-9.1 229.59-12.85L229.59-12.85Q229.59-16.65 227.86-18.45 226.13-20.25 222.88-20.25L222.88-20.25 213.63-20.25Q210.38-20.25 208.66-18.45 206.94-16.65 206.94-12.85L206.94-12.85Q206.94-9.1 208.66-7.3 210.38-5.5 213.63-5.5ZM266.88 0L255.98 0Q251.63 0 249.58-2.18 247.53-4.35 247.53-7.9L247.53-7.9 247.53-20 240.08-20 240.08-25.75 247.53-25.75 247.53-33.65 254.78-33.65 254.78-25.75 265.48-25.75 265.48-20 254.78-20 254.78-8.8Q254.78-5.75 257.78-5.75L257.78-5.75 266.88-5.75 266.88 0ZM277.88 0L270.63 0 270.63-35.75 277.88-35.75 277.88-25.75 293.08-25.75Q297.48-25.75 299.5-23.58 301.53-21.4 301.53-17.85L301.53-17.85 301.53 0 294.28 0 294.28-17Q294.28-20 291.28-20L291.28-20 277.88-20 277.88 0ZM314.13 0L306.78 0 306.78-25.75 326.48-25.75Q330.83-25.75 332.88-23.58 334.93-21.4 334.93-17.85L334.93-17.85 334.93-12.5 327.58-12.5 327.58-16.95Q327.58-19.95 324.58-19.95L324.58-19.95 314.13-19.95 314.13 0ZM372.22 0L345.77 0Q341.72 0 339.57-2.05 337.42-4.1 337.42-7.9L337.42-7.9Q337.42-11.65 339.57-13.7 341.72-15.75 345.77-15.75L345.77-15.75 364.97-15.75 364.97-16.95Q364.97-20 361.97-20L361.97-20 340.77-20 340.77-25.75 363.87-25.75Q368.42-25.75 370.32-23.68 372.22-21.6 372.22-17.85L372.22-17.85 372.22 0ZM347.07-5.75L347.07-5.75 364.97-5.75 364.97-10 347.07-10Q346.12-10 345.6-9.43 345.07-8.85 345.07-7.9L345.07-7.9Q345.07-6.95 345.6-6.35 346.12-5.75 347.07-5.75Z" opacity="1" transform="matrix(1,0,0,1,0,0)" fill="white" class="wordmark-text-0" id="SvgjsPath1707"></path></svg></g></svg></g><g transform="matrix(1,0,0,1,195.7824,47.43973062727762)"><svg viewBox="0 0 3.9552 0.3159722418450031" height="0.3159722418450031" width="3.9552"><g transform="matrix(1,0,0,1,0,0)"><svg width="3.9552" viewBox="3 -37.7 481.24 38.45" height="0.3159722418450031" data-palette-color="#ef5b2a"><path d="M3-34.55L9.35-34.55 9.35 0 3 0 3-34.55ZM41.95-6.4Q41.95-5.1 42.3-4.48 42.65-3.85 43.45-3.45L43.45-3.45 42.2 0.65Q40.15 0.4 38.92-0.45 37.7-1.3 37.1-3.05L37.1-3.05Q34.8 0.75 30.65 0.75L30.65 0.75Q27.35 0.75 25.4-1.48 23.45-3.7 23.45-7.4L23.45-7.4Q23.45-11.7 26.12-13.95 28.8-16.2 33.9-16.2L33.9-16.2 35.95-16.2 35.95-18.05Q35.95-20.55 35.07-21.58 34.2-22.6 32.25-22.6L32.25-22.6Q29.9-22.6 26.4-21.3L26.4-21.3 25-25.3Q27-26.2 29.15-26.68 31.3-27.15 33.25-27.15L33.25-27.15Q41.95-27.15 41.95-18.35L41.95-18.35 41.95-6.4ZM32.3-3.7Q34.7-3.7 35.95-7L35.95-7 35.95-12.55 34.5-12.55Q31.95-12.55 30.77-11.4 29.6-10.25 29.6-7.85L29.6-7.85Q29.6-5.8 30.3-4.75 31-3.7 32.3-3.7L32.3-3.7ZM71.39-27.15Q74.04-27.15 75.64-25.1 77.24-23.05 77.24-19.6L77.24-19.6 77.24 0 71.19 0 71.19-18.95Q71.19-20.85 70.69-21.68 70.19-22.5 69.24-22.5L69.24-22.5Q67.29-22.5 65.49-18.8L65.49-18.8 65.49 0 59.49 0 59.49-18.95Q59.49-22.5 57.59-22.5L57.59-22.5Q55.54-22.5 53.79-18.8L53.79-18.8 53.79 0 47.74 0 47.74-26.45 53.09-26.45 53.49-23.05Q56.09-27.15 59.74-27.15L59.74-27.15Q61.59-27.15 62.94-26 64.29-24.85 64.99-22.75L64.99-22.75Q67.64-27.15 71.39-27.15L71.39-27.15ZM104.94-27.15Q107.79-27.15 109.44-25.1 111.09-23.05 111.09-19.6L111.09-19.6 111.09 0 104.94 0 104.94-18.9Q104.94-20.8 104.41-21.63 103.89-22.45 102.89-22.45L102.89-22.45Q100.79-22.45 98.74-18.5L98.74-18.5 98.74 0 92.59 0 92.59-26.45 97.94-26.45 98.39-23Q99.74-25.1 101.26-26.13 102.79-27.15 104.94-27.15L104.94-27.15ZM126.04-27.15Q131.04-27.15 133.81-23.65 136.59-20.15 136.59-13.25L136.59-13.25Q136.59-6.65 133.79-2.95 130.99 0.75 126.04 0.75L126.04 0.75Q121.09 0.75 118.29-2.88 115.49-6.5 115.49-13.25L115.49-13.25Q115.49-19.95 118.29-23.55 121.09-27.15 126.04-27.15L126.04-27.15ZM126.04-22.5Q123.89-22.5 122.89-20.38 121.89-18.25 121.89-13.25L121.89-13.25Q121.89-8.2 122.89-6.08 123.89-3.95 126.04-3.95L126.04-3.95Q128.19-3.95 129.19-6.08 130.19-8.2 130.19-13.25L130.19-13.25Q130.19-18.3 129.19-20.4 128.19-22.5 126.04-22.5L126.04-22.5ZM152.28-5L154.43-1.2Q151.98 0.75 148.68 0.75L148.68 0.75Q145.23 0.75 143.43-1.23 141.63-3.2 141.63-6.6L141.63-6.6 141.63-22 138.53-22 138.53-26.45 141.63-26.45 141.63-32.3 147.78-33.05 147.78-26.45 152.78-26.45 152.18-22 147.78-22 147.78-6.6Q147.78-4.2 149.83-4.2L149.83-4.2Q150.48-4.2 150.98-4.38 151.48-4.55 152.28-5L152.28-5ZM176.53-33.05Q175.13-33.05 174.45-32.3 173.78-31.55 173.78-30L173.78-30 173.78-26.45 178.83-26.45 178.13-22 173.78-22 173.78 0 167.63 0 167.63-22 164.33-22 164.33-26.45 167.63-26.45 167.63-29.8Q167.63-33.4 169.73-35.55 171.83-37.7 175.73-37.7L175.73-37.7Q178.78-37.7 181.63-36.2L181.63-36.2 179.93-32.2Q178.18-33.05 176.53-33.05L176.53-33.05ZM198.53-6.4Q198.53-5.1 198.88-4.48 199.23-3.85 200.03-3.45L200.03-3.45 198.78 0.65Q196.73 0.4 195.5-0.45 194.28-1.3 193.68-3.05L193.68-3.05Q191.38 0.75 187.23 0.75L187.23 0.75Q183.93 0.75 181.98-1.48 180.03-3.7 180.03-7.4L180.03-7.4Q180.03-11.7 182.7-13.95 185.38-16.2 190.48-16.2L190.48-16.2 192.53-16.2 192.53-18.05Q192.53-20.55 191.65-21.58 190.78-22.6 188.83-22.6L188.83-22.6Q186.48-22.6 182.98-21.3L182.98-21.3 181.58-25.3Q183.58-26.2 185.73-26.68 187.88-27.15 189.83-27.15L189.83-27.15Q198.53-27.15 198.53-18.35L198.53-18.35 198.53-6.4ZM188.88-3.7Q191.28-3.7 192.53-7L192.53-7 192.53-12.55 191.08-12.55Q188.53-12.55 187.35-11.4 186.18-10.25 186.18-7.85L186.18-7.85Q186.18-5.8 186.88-4.75 187.58-3.7 188.88-3.7L188.88-3.7ZM211.67-27.15Q216.37-27.15 219.62-24.05L219.62-24.05 217.27-20.7Q215.87-21.7 214.62-22.2 213.37-22.7 212.07-22.7L212.07-22.7Q210.62-22.7 209.8-21.93 208.97-21.15 208.97-19.8L208.97-19.8Q208.97-18.45 209.9-17.63 210.82-16.8 213.62-15.7L213.62-15.7Q217.07-14.35 218.72-12.5 220.37-10.65 220.37-7.55L220.37-7.55Q220.37-3.7 217.67-1.48 214.97 0.75 210.82 0.75L210.82 0.75Q208.12 0.75 205.85-0.23 203.57-1.2 201.87-2.95L201.87-2.95 204.87-6.25Q207.67-3.8 210.57-3.8L210.57-3.8Q212.22-3.8 213.17-4.67 214.12-5.55 214.12-7.1L214.12-7.1Q214.12-8.25 213.72-8.97 213.32-9.7 212.32-10.33 211.32-10.95 209.32-11.7L209.32-11.7Q205.87-13.05 204.4-14.85 202.92-16.65 202.92-19.45L202.92-19.45Q202.92-22.8 205.3-24.98 207.67-27.15 211.67-27.15L211.67-27.15ZM235.37-5L237.52-1.2Q235.07 0.75 231.77 0.75L231.77 0.75Q228.32 0.75 226.52-1.23 224.72-3.2 224.72-6.6L224.72-6.6 224.72-22 221.62-22 221.62-26.45 224.72-26.45 224.72-32.3 230.87-33.05 230.87-26.45 235.87-26.45 235.27-22 230.87-22 230.87-6.6Q230.87-4.2 232.92-4.2L232.92-4.2Q233.57-4.2 234.07-4.38 234.57-4.55 235.37-5L235.37-5ZM262.07-27.15Q265.92-27.15 267.97-23.65 270.02-20.15 270.02-13.25L270.02-13.25Q270.02-6.75 267.72-3 265.42 0.75 261.42 0.75L261.42 0.75Q259.67 0.75 258.22-0.13 256.77-1 255.72-2.55L255.72-2.55 255.37 0 249.92 0 249.92-37 256.07-37.65 256.07-23.6Q257.12-25.3 258.64-26.23 260.17-27.15 262.07-27.15L262.07-27.15ZM259.77-3.9Q261.62-3.9 262.64-6 263.67-8.1 263.67-13.25L263.67-13.25Q263.67-18.6 262.74-20.58 261.82-22.55 260.12-22.55L260.12-22.55Q258.97-22.55 257.92-21.6 256.87-20.65 256.07-19.1L256.07-19.1 256.07-6.7Q256.72-5.45 257.69-4.67 258.67-3.9 259.77-3.9L259.77-3.9ZM292.76-26.45L292.76 0 287.41 0 287.11-3.35Q285.86-1.3 284.31-0.28 282.76 0.75 280.71 0.75L280.71 0.75Q277.81 0.75 276.14-1.3 274.46-3.35 274.46-6.65L274.46-6.65 274.46-26.45 280.61-26.45 280.61-7Q280.61-3.9 282.71-3.9L282.71-3.9Q283.91-3.9 284.86-4.83 285.81-5.75 286.61-7.45L286.61-7.45 286.61-26.45 292.76-26.45ZM309.61-5L311.76-1.2Q309.31 0.75 306.01 0.75L306.01 0.75Q302.56 0.75 300.76-1.23 298.96-3.2 298.96-6.6L298.96-6.6 298.96-22 295.86-22 295.86-26.45 298.96-26.45 298.96-32.3 305.11-33.05 305.11-26.45 310.11-26.45 309.51-22 305.11-22 305.11-6.6Q305.11-4.2 307.16-4.2L307.16-4.2Q307.81-4.2 308.31-4.38 308.81-4.55 309.61-5L309.61-5ZM341.06-6.4Q341.06-5.1 341.41-4.48 341.76-3.85 342.56-3.45L342.56-3.45 341.31 0.65Q339.26 0.4 338.03-0.45 336.81-1.3 336.21-3.05L336.21-3.05Q333.91 0.75 329.76 0.75L329.76 0.75Q326.46 0.75 324.51-1.48 322.56-3.7 322.56-7.4L322.56-7.4Q322.56-11.7 325.23-13.95 327.91-16.2 333.01-16.2L333.01-16.2 335.06-16.2 335.06-18.05Q335.06-20.55 334.18-21.58 333.31-22.6 331.36-22.6L331.36-22.6Q329.01-22.6 325.51-21.3L325.51-21.3 324.11-25.3Q326.11-26.2 328.26-26.68 330.41-27.15 332.36-27.15L332.36-27.15Q341.06-27.15 341.06-18.35L341.06-18.35 341.06-6.4ZM331.41-3.7Q333.81-3.7 335.06-7L335.06-7 335.06-12.55 333.61-12.55Q331.06-12.55 329.88-11.4 328.71-10.25 328.71-7.85L328.71-7.85Q328.71-5.8 329.41-4.75 330.11-3.7 331.41-3.7L331.41-3.7ZM356.35-27.15Q358.5-27.15 360.25-26.43 362-25.7 363.6-24.15L363.6-24.15 360.95-20.65Q359.85-21.55 358.88-21.98 357.9-22.4 356.75-22.4L356.75-22.4Q354.5-22.4 353.35-20.28 352.2-18.15 352.2-13.1L352.2-13.1Q352.2-8.2 353.38-6.2 354.55-4.2 356.75-4.2L356.75-4.2Q357.85-4.2 358.75-4.6 359.65-5 360.85-5.85L360.85-5.85 363.6-2.3Q360.4 0.75 356.45 0.75L356.45 0.75Q351.35 0.75 348.53-2.73 345.7-6.2 345.7-13L345.7-13Q345.7-17.4 347-20.6 348.3-23.8 350.73-25.48 353.15-27.15 356.35-27.15L356.35-27.15ZM376.15-27.15Q378.3-27.15 380.05-26.43 381.8-25.7 383.4-24.15L383.4-24.15 380.75-20.65Q379.65-21.55 378.68-21.98 377.7-22.4 376.55-22.4L376.55-22.4Q374.3-22.4 373.15-20.28 372-18.15 372-13.1L372-13.1Q372-8.2 373.18-6.2 374.35-4.2 376.55-4.2L376.55-4.2Q377.65-4.2 378.55-4.6 379.45-5 380.65-5.85L380.65-5.85 383.4-2.3Q380.2 0.75 376.25 0.75L376.25 0.75Q371.15 0.75 368.33-2.73 365.5-6.2 365.5-13L365.5-13Q365.5-17.4 366.8-20.6 368.1-23.8 370.53-25.48 372.95-27.15 376.15-27.15L376.15-27.15ZM404.6-26.45L404.6 0 399.25 0 398.95-3.35Q397.7-1.3 396.15-0.28 394.6 0.75 392.55 0.75L392.55 0.75Q389.65 0.75 387.97-1.3 386.3-3.35 386.3-6.65L386.3-6.65 386.3-26.45 392.45-26.45 392.45-7Q392.45-3.9 394.55-3.9L394.55-3.9Q395.75-3.9 396.7-4.83 397.65-5.75 398.45-7.45L398.45-7.45 398.45-26.45 404.6-26.45ZM421.95-27.1Q423.1-27.1 424-26.75L424-26.75 423-20.85Q422-21.1 421.15-21.1L421.15-21.1Q419.25-21.1 418.15-19.45 417.05-17.8 416.45-14.55L416.45-14.55 416.45 0 410.3 0 410.3-26.45 415.65-26.45 416.1-21.85Q417.95-27.1 421.95-27.1L421.95-27.1ZM443.74-6.4Q443.74-5.1 444.09-4.48 444.44-3.85 445.24-3.45L445.24-3.45 443.99 0.65Q441.94 0.4 440.72-0.45 439.49-1.3 438.89-3.05L438.89-3.05Q436.59 0.75 432.44 0.75L432.44 0.75Q429.14 0.75 427.19-1.48 425.24-3.7 425.24-7.4L425.24-7.4Q425.24-11.7 427.92-13.95 430.59-16.2 435.69-16.2L435.69-16.2 437.74-16.2 437.74-18.05Q437.74-20.55 436.87-21.58 435.99-22.6 434.04-22.6L434.04-22.6Q431.69-22.6 428.19-21.3L428.19-21.3 426.79-25.3Q428.79-26.2 430.94-26.68 433.09-27.15 435.04-27.15L435.04-27.15Q443.74-27.15 443.74-18.35L443.74-18.35 443.74-6.4ZM434.09-3.7Q436.49-3.7 437.74-7L437.74-7 437.74-12.55 436.29-12.55Q433.74-12.55 432.57-11.4 431.39-10.25 431.39-7.85L431.39-7.85Q431.39-5.8 432.09-4.75 432.79-3.7 434.09-3.7L434.09-3.7ZM460.69-5L462.84-1.2Q460.39 0.75 457.09 0.75L457.09 0.75Q453.64 0.75 451.84-1.23 450.04-3.2 450.04-6.6L450.04-6.6 450.04-22 446.94-22 446.94-26.45 450.04-26.45 450.04-32.3 456.19-33.05 456.19-26.45 461.19-26.45 460.59-22 456.19-22 456.19-6.6Q456.19-4.2 458.24-4.2L458.24-4.2Q458.89-4.2 459.39-4.38 459.89-4.55 460.69-5L460.69-5ZM484.24-13.85Q484.24-13.4 484.09-11.3L484.09-11.3 470.44-11.3Q470.64-7.2 471.86-5.58 473.09-3.95 475.34-3.95L475.34-3.95Q476.89-3.95 478.14-4.48 479.39-5 480.84-6.15L480.84-6.15 483.39-2.65Q479.89 0.75 474.99 0.75L474.99 0.75Q469.79 0.75 467.01-2.85 464.24-6.45 464.24-13L464.24-13Q464.24-19.55 466.89-23.35 469.54-27.15 474.39-27.15L474.39-27.15Q479.04-27.15 481.64-23.78 484.24-20.4 484.24-13.85L484.24-13.85ZM478.24-15.3L478.24-15.65Q478.24-19.4 477.34-21.13 476.44-22.85 474.44-22.85L474.44-22.85Q472.59-22.85 471.61-21.18 470.64-19.5 470.44-15.3L470.44-15.3 478.24-15.3Z" opacity="1" transform="matrix(1,0,0,1,0,0)" fill="black" class="slogan-text-1" id="SvgjsPath1706"></path></svg></g></svg></g></svg></g></svg></g><g><svg viewBox="0 0 129.87273754376682 96.3576367930861" height="96.3576367930861" width="129.87273754376682"><g><svg xmlns="http://www.w3.org/2000/svg" xmlns:xlink="http://www.w3.org/1999/xlink" version="1.1" x="0" y="0" viewBox="5.132408955589326 16.710673764624296 89.73559104441067 66.5783262353757" enable-background="new 0 0 100 100" xml:space="preserve" height="96.3576367930861" width="129.87273754376682" class="icon-icon-0" data-fill-palette-color="accent" id="SvgjsSvg1705"><g fill="black"><g fill="black"><path fill-rule="evenodd" clip-rule="evenodd" d="M74.326 68.963c-0.798-0.145-1.9-0.323-2.992-0.555-0.341-0.071-0.667-0.255-0.974-0.432-1.325-0.767-1.746-1.954-0.93-3.247 0.693-1.103 1.573-2.117 2.501-3.037 1.594-1.582 3.297-3.057 4.94-4.588 4.552-4.241 7.812-9.313 9.824-15.2 0.328-0.958 0.706-1.908 1.158-2.812 0.898-1.788 2-1.927 3.344-0.457 1.32 1.445 2.083 3.202 2.522 5.069 1.868 7.964-0.336 14.692-6.371 20.143-2.905 2.626-6.373 4.208-10.25 4.836C76.294 68.814 75.471 68.851 74.326 68.963z" fill="black"></path><path fill-rule="evenodd" clip-rule="evenodd" d="M92.634 38.514c-0.653-1.049-1.292-2.153-2.012-3.201-0.739-1.076-1.61-2.049-2.715-2.778-1.506-0.995-2.472-0.662-2.837 1.085-0.302 1.443-0.484 2.917-0.636 4.387-0.803 7.851-4.379 14.12-10.652 18.884-3.111 2.361-6.535 4.188-9.985 5.977-1.898 0.982-3.829 1.915-5.486 3.297-0.393 0.328-0.756 0.713-1.059 1.125-0.763 1.045-0.708 2.198 0.128 3.191 1.074 1.28 2.537 1.934 4.071 2.445 2.922 0.974 5.939 1.181 8.983 0.946 4.886-0.38 9.429-1.859 13.513-4.59 5.735-3.835 9.416-9.074 10.688-15.92 0.022-0.119 0.062-0.233 0.094-0.349 0.047 0.01 0.093 0.02 0.139 0.029-0.181 0.872-0.324 1.753-0.547 2.613-2.235 8.58-7.57 14.593-15.453 18.412-5.266 2.551-10.866 3.581-16.712 3.264-3.956-0.216-7.766-1.03-11.323-2.828-1.505-0.76-2.909-1.677-3.968-3.024-0.655-0.834-1.134-1.74-0.875-2.858 0.202-0.87 0.787-1.468 1.482-1.96 1.446-1.021 3.11-1.567 4.779-2.079 3.403-1.045 6.838-1.997 10.215-3.117 3.978-1.317 7.716-3.146 11.027-5.763 4.653-3.679 7.529-8.396 8.347-14.309 0.316-2.291 0.267-4.588 0.09-6.89-0.128-1.651-0.202-3.308-0.271-4.962-0.012-0.289 0.091-0.601 0.205-0.875 0.252-0.599 0.808-0.91 1.45-0.637 0.891 0.377 1.806 0.802 2.549 1.404 3.007 2.436 5.117 5.572 6.777 9.031C92.651 38.49 92.632 38.53 92.634 38.514z" fill="black"></path><path fill-rule="evenodd" clip-rule="evenodd" d="M43.539 16.952c-1.064 0.275-2.123 0.514-3.159 0.832-0.556 0.169-1.102 0.425-1.59 0.738-0.281 0.179-0.594 0.55-0.597 0.837-0.001 0.221 0.426 0.553 0.723 0.647 0.964 0.307 1.947 0.575 2.939 0.775 4.686 0.946 9.3 2.127 13.712 4.012 5.238 2.238 9.98 5.27 14.37 8.877 0.411 0.338 0.821 0.678 1.19 1.075-1.092-0.709-2.184-1.42-3.275-2.129-4.513-2.929-9.213-5.479-14.349-7.164-5.083-1.667-10.277-2.512-15.63-2.206-2.663 0.152-5.274 0.613-7.754 1.648-4.807 2.005-7.589 5.706-8.757 10.675-1.146 4.878-0.354 9.594 1.414 14.196 0.062 0.159 0.12 0.32 0.18 0.48-0.048 0.021-0.096 0.042-0.143 0.062-0.599-1.321-1.237-2.628-1.789-3.97-1.365-3.326-2.043-6.811-2.353-10.381-0.086-1.01-0.214-2.024-0.43-3.013-0.267-1.221-0.986-1.602-2.189-1.245-1.295 0.385-2.363 1.169-3.342 2.059-3.771 3.432-5.965 7.731-6.772 12.729-1.026 6.351 0.45 12.201 3.736 17.652 0.108 0.182 0.216 0.36 0.263 0.589-0.053-0.064-0.112-0.125-0.158-0.194-2.564-3.895-4.199-8.132-4.564-12.798-0.51-6.521 1.353-12.361 5.282-17.558 2.842-3.758 6.466-6.62 10.478-9.019 4.056-2.426 8.189-4.7 12.683-6.241 3.086-1.059 6.281-1.576 9.505-1.965C43.285 16.939 43.411 16.952 43.539 16.952z" fill="black"></path><path fill-rule="evenodd" clip-rule="evenodd" d="M61.55 61.343c-2.16 0.432-4.308 0.96-6.484 1.273-3.546 0.512-7.112 0.87-10.667 1.316-1.714 0.217-3.426 0.478-5.038 1.151-2.632 1.103-3.239 3.024-1.707 5.444 1.121 1.772 2.715 3.062 4.453 4.177 3.482 2.239 7.323 3.559 11.365 4.323 3.829 0.723 7.688 0.867 11.56 0.423 6.403-0.734 12.298-2.837 17.522-6.675 0.137-0.102 0.28-0.188 0.421-0.283 0.027 0.041 0.057 0.079 0.085 0.119-0.994 0.725-1.971 1.477-2.987 2.169-4.866 3.32-10.242 5.348-16.062 6.188-8.425 1.216-16.525 0.121-24.223-3.575-3.16-1.518-6.029-3.465-8.351-6.133-1.098-1.261-2.023-2.628-2.404-4.294-0.399-1.745 0.25-3.111 1.865-3.873 1.1-0.519 2.284-0.745 3.479-0.742 2.764 0.002 5.529 0.042 8.29 0.152 4.246 0.17 8.493 0.326 12.723-0.194 2.06-0.255 4.099-0.687 6.146-1.039C61.541 61.295 61.546 61.319 61.55 61.343z" fill="black"></path><path fill-rule="evenodd" clip-rule="evenodd" d="M65.631 81.426c-1.752 0.377-3.496 0.797-5.258 1.123-4.186 0.775-8.406 0.904-12.628 0.417-8.404-0.967-16.037-3.862-22.574-9.342-3.041-2.547-5.567-5.528-7.092-9.246-0.675-1.647-1.105-3.351-0.79-5.159 0.323-1.852 1.667-3.017 3.546-3.101 1.593-0.071 3.128 0.24 4.623 0.725 3.147 1.024 6.268 2.136 9.419 3.148 2.197 0.705 4.428 1.307 6.489 1.908-1.008-0.179-2.186-0.391-3.364-0.598-2.822-0.501-5.641-1.03-8.47-1.488-1.357-0.22-2.733-0.254-4.098 0.041-2.114 0.458-3.188 2.023-2.868 4.176 0.316 2.126 1.326 3.934 2.604 5.604 2.893 3.78 6.67 6.446 10.891 8.527 4.302 2.122 8.855 3.419 13.616 3.999 5.237 0.636 10.424 0.396 15.559-0.841 0.119-0.027 0.243-0.036 0.364-0.054C65.611 81.318 65.621 81.372 65.631 81.426z" fill="black"></path><path fill-rule="evenodd" clip-rule="evenodd" d="M44.913 83.289c-1.744-0.25-3.499-0.436-5.228-0.76-6.602-1.23-12.641-3.782-17.982-7.884-4.446-3.413-8-7.559-10.145-12.798-1.127-2.755-1.751-5.611-1.436-8.611 0.153-1.453 0.517-2.843 1.405-4.04 1.021-1.377 2.398-1.835 4.061-1.358 1.625 0.468 2.977 1.436 4.318 2.41 3.084 2.243 6.149 4.512 9.235 6.751 0.597 0.434 1.252 0.786 1.841 1.249-0.658-0.332-1.319-0.661-1.976-0.996-2.666-1.357-5.312-2.758-8.01-4.048-0.95-0.456-2.006-0.749-3.046-0.94-2.829-0.517-4.246 1.267-4.625 3.479-0.419 2.452 0.105 4.788 1.01 7.053 1.531 3.833 3.972 7.034 6.996 9.795 6.155 5.619 13.456 8.838 21.624 10.209 0.66 0.113 1.324 0.203 1.986 0.305C44.931 83.166 44.922 83.228 44.913 83.289z" fill="black"></path><path fill-rule="evenodd" clip-rule="evenodd" d="M26.441 78.456c-1.506-0.831-3.045-1.606-4.512-2.503-5.457-3.332-9.819-7.72-12.717-13.471-2.046-4.059-3.056-8.358-2.717-12.915 0.258-3.476 1.25-6.717 3.425-9.511 0.694-0.892 1.497-1.679 2.549-2.156 1.16-0.525 2.181-0.4 3.013 0.559 0.681 0.787 1.256 1.682 1.777 2.587 1.519 2.638 2.908 5.354 4.503 7.943 1.015 1.646 2.305 3.122 3.47 4.674 0.059 0.076 0.114 0.153 0.102 0.294-0.189-0.177-0.387-0.344-0.563-0.531-2.334-2.506-4.648-5.03-7.004-7.515-0.745-0.786-1.543-1.546-2.419-2.176-1.792-1.29-3.593-0.977-4.987 0.751-1.247 1.542-1.877 3.349-2.174 5.273-0.769 4.979 0.408 9.599 2.748 13.957 3.153 5.875 7.855 10.214 13.588 13.504 0.662 0.38 1.343 0.73 2.015 1.093C26.504 78.36 26.473 78.408 26.441 78.456z" fill="black"></path><path fill-rule="evenodd" clip-rule="evenodd" d="M21.966 46.788c-0.077-0.734-0.177-1.468-0.226-2.205-0.283-4.324 0.528-8.38 3.043-11.989 2.307-3.308 5.52-5.363 9.319-6.547 3.768-1.173 7.627-1.387 11.538-1.024 6.396 0.592 12.308 2.747 18.021 5.549 0.541 0.266 1.083 0.533 1.594 0.866-1.375-0.504-2.749-1.01-4.123-1.514-3.6-1.318-7.243-2.485-11.039-3.105-5.445-0.89-10.847-0.888-16.077 1.124-6.586 2.533-10.511 7.299-11.675 14.286-0.126 0.754-0.19 1.524-0.229 2.288-0.038 0.748-0.008 1.498-0.008 2.247C22.059 46.771 22.012 46.78 21.966 46.788z" fill="black"></path><path fill-rule="evenodd" clip-rule="evenodd" d="M75.267 38.73c-0.522-0.592-1.046-1.183-1.566-1.775-6.062-6.909-13.469-11.91-21.917-15.434-1.429-0.596-2.843-1.229-4.243-1.888-0.509-0.24-0.994-0.566-1.425-0.93-0.544-0.461-0.485-1.019 0.186-1.306 0.727-0.311 1.517-0.614 2.291-0.645 2.044-0.083 4.094-0.017 6.143-0.007 0.06 0 0.121 0.035 0.307 0.091-0.725 0.07-1.323 0.093-1.905 0.194-0.497 0.086-1.1 0.137-1.261 0.73-0.161 0.594 0.304 0.986 0.719 1.269 1.542 1.054 3.09 2.103 4.682 3.078 4.7 2.877 9.134 6.088 12.935 10.112 1.816 1.923 3.463 3.979 4.943 6.168 0.065 0.097 0.118 0.201 0.177 0.302C75.309 38.703 75.287 38.717 75.267 38.73z" fill="black"></path><path fill-rule="evenodd" clip-rule="evenodd" d="M81.998 26.127c-0.353-0.185-0.695-0.394-1.062-0.549-0.423-0.179-0.858-0.351-1.305-0.456-0.975-0.229-1.585 0.214-1.502 1.216 0.092 1.074 0.342 2.138 0.565 3.197 0.522 2.47 1.252 4.911 1.576 7.405 0.924 7.096-1.089 13.205-6.565 18.001 0.246-0.251 0.496-0.496 0.736-0.754 0.257-0.271 0.516-0.544 0.755-0.83 3.028-3.667 4.252-7.914 4.035-12.619-0.187-3.998-1.443-7.711-2.998-11.348-0.616-1.438-1.203-2.891-1.774-4.347-0.142-0.359-0.211-0.757-0.251-1.143-0.082-0.8 0.356-1.286 1.159-1.227 0.508 0.037 1.024 0.157 1.503 0.334C78.772 23.713 80.395 24.906 81.998 26.127z" fill="black"></path><path fill-rule="evenodd" clip-rule="evenodd" d="M77.751 43.611c-1.376-4.173-3.517-7.787-6.17-11.111-2.526-3.166-5.467-5.913-8.606-8.458-1.51-1.224-3.026-2.438-4.517-3.685-0.447-0.374-0.858-0.811-1.211-1.275-0.618-0.814-0.389-1.431 0.615-1.609 0.625-0.11 1.289-0.171 1.911-0.083 1.462 0.206 2.908 0.513 4.36 0.782 0.079 0.015 0.153 0.057 0.339 0.129-0.69 0-1.262-0.045-1.824 0.01-0.904 0.089-1.205 0.626-0.729 1.407 0.422 0.693 0.935 1.348 1.49 1.943 2.08 2.229 4.267 4.362 6.28 6.65 3.594 4.081 6.42 8.621 7.827 13.942 0.095 0.361 0.172 0.726 0.251 1.09C77.779 43.394 77.763 43.448 77.751 43.611z" fill="black"></path><path fill-rule="evenodd" clip-rule="evenodd" d="M77.906 48.028c0.035-0.298 0.076-0.596 0.104-0.896 0.42-4.531-0.779-8.716-2.741-12.735-1.65-3.385-3.87-6.395-6.187-9.341-0.781-0.994-1.548-2.003-2.271-3.039-0.312-0.446-0.549-0.96-0.73-1.476-0.209-0.586 0.073-1.078 0.688-1.132 0.628-0.055 1.303-0.066 1.896 0.108 1.624 0.477 3.216 1.061 4.776 1.704-0.678-0.115-1.353-0.292-2.035-0.33-0.942-0.053-1.365 0.466-1.023 1.356 0.414 1.072 0.931 2.117 1.513 3.108 1.677 2.856 3.42 5.674 4.663 8.761 1.331 3.308 2.156 6.718 1.961 10.309-0.065 1.213-0.284 2.418-0.435 3.626C78.026 48.045 77.966 48.037 77.906 48.028z" fill="black"></path><path fill-rule="evenodd" clip-rule="evenodd" d="M22.331 43.36c0.306-1.013 0.555-2.047 0.925-3.036 2.283-6.102 6.735-9.877 12.841-11.822 3.4-1.083 6.903-1.393 10.457-1.234 3.721 0.167 7.351 0.881 10.954 1.77 0.095 0.024 0.186 0.074 0.394 0.159-1.729-0.234-3.329-0.464-4.934-0.667-5.219-0.657-10.42-0.796-15.543 0.669-7.35 2.103-12.439 6.627-14.863 13.977-0.026 0.077-0.053 0.153-0.079 0.229C22.432 43.392 22.381 43.375 22.331 43.36z" fill="black"></path><path fill-rule="evenodd" clip-rule="evenodd" d="M48.016 28.454c-2.662 0.242-5.287 0.608-7.878 1.205-5.475 1.26-10.307 3.687-14.169 7.856-0.308 0.333-0.6 0.678-0.9 1.017-0.034-0.029-0.069-0.058-0.104-0.087 0.527-0.634 1.031-1.288 1.584-1.898 3.133-3.454 7.043-5.619 11.497-6.861 3.181-0.888 6.44-1.188 9.727-1.261C47.854 28.424 47.935 28.444 48.016 28.454z" fill="black"></path><path fill-rule="evenodd" clip-rule="evenodd" d="M14.697 28.899c-0.656 0.67-1.311 1.341-2.005 2.051 0.717-0.694 1.396-1.35 2.074-2.006C14.743 28.929 14.719 28.915 14.697 28.899z" fill="black"></path></g></g></svg></g></svg></g></svg></g><defs><mask></mask></defs></svg><rect width="395.52" height="71.30909631831773" fill="black" stroke="none" visibility="hidden"></rect></g></mask><linearGradient x1="0" x2="1" y1="0.548" y2="0.55" id="6418aa61-2e0d-46bc-ad39-75bcb618d1d4"><stop stop-color="#ff6cab" offset="0"></stop><stop stop-color="#7366ff" offset="1"></stop></linearGradient><rect width="395.52" height="71.30909631831774" fill="url(#6418aa61-2e0d-46bc-ad39-75bcb618d1d4)" mask="url(#8dabe81c-61c9-401f-92b8-3200ac0fd466)" data-fill-palette-color="primary"></rect></svg><rect width="395.52" height="71.30909631831773" fill="none" stroke="none" visibility="hidden"></rect></g></svg></g></svg>